<?xml version="1.0" encoding="utf-8"?>
<!-- Generator: Adobe Illustrator 16.2.1, SVG Export Plug-In . SVG Version: 6.00 Build 0)  -->
<!DOCTYPE svg PUBLIC "-//W3C//DTD SVG 1.1//EN" "http://www.w3.org/Graphics/SVG/1.1/DTD/svg11.dtd">
<svg version="1.1" id="Layer_1" xmlns="http://www.w3.org/2000/svg" xmlns:xlink="http://www.w3.org/1999/xlink" x="0px" y="0px"
	 width="512px" height="512px" viewBox="0 0 512 512" enable-background="new 0 0 512 512" xml:space="preserve">
<path fill="#48B3CC" d="M256,0C149.969,0,64,85.969,64,192c0,43.188,14.25,83,38.313,115.094L256,512l153.688-204.906
	C433.75,275,448,235.188,448,192C448,85.969,362.031,0,256,0z M256,320c-70.688,0-128-57.312-128-128c0-70.687,57.313-128,128-128
	c70.688,0,128,57.313,128,128C384,262.688,326.688,320,256,320z"/>
</svg>
